HIERARCHY
ROOT Hips
{
  OFFSET 52.0728 91.63 5.2421
  CHANNELS 6 Xposition Yposition Zposition Zrotation Xrotation Yrotation
  JOINT spine
  {
    OFFSET 0 6.84637 0.3937
    CHANNELS 3 Zrotation Xrotation Yrotation
    JOINT spine1
    {
      OFFSET 0 9.49621 0
      CHANNELS 3 Zrotation Xrotation Yrotation
      JOINT spine2
      {
        OFFSET 0 9.09909 0
        CHANNELS 3 Zrotation Xrotation Yrotation
        JOINT Neck
        {
          OFFSET 0 23.3612 1.11378
          CHANNELS 3 Zrotation Xrotation Yrotation
          JOINT Head
          {
            OFFSET 0 7.05802 0
            CHANNELS 3 Zrotation Xrotation Yrotation
            End Site
            {
              OFFSET 0 17.0844 -5.63419
            }
          }
        }
        JOINT RightShoulder
        {
          OFFSET -3.83136 9.82631 -0.533491
          CHANNELS 3 Zrotation Xrotation Yrotation
          JOINT RightArm
          {
            OFFSET 0 12.8881 0
            CHANNELS 3 Zrotation Xrotation Yrotation
            JOINT RightArmRoll
            {
              OFFSET 0 6.50617 0
              CHANNELS 3 Zrotation Xrotation Yrotation
              JOINT RightForeArm
              {
                OFFSET 0 18.9501 0
                CHANNELS 3 Zrotation Xrotation Yrotation
                JOINT RightForeArmRoll
                {
                  OFFSET 0 7.30092 0
                  CHANNELS 3 Zrotation Xrotation Yrotation
                  JOINT RightHand
                  {
                    OFFSET 0 14.6514 0
                    CHANNELS 3 Zrotation Xrotation Yrotation
                    End Site
                    {
                      OFFSET 0 0 0
                    }
                  }
                }
              }
            }
          }
        }
        JOINT LeftShoulder
        {
          OFFSET 3.83136 9.82631 -0.533491
          CHANNELS 3 Zrotation Xrotation Yrotation
          JOINT LeftArm
          {
            OFFSET 0 12.8881 0
            CHANNELS 3 Zrotation Xrotation Yrotation
            JOINT LeftArmRoll
            {
              OFFSET 0 6.50617 0
              CHANNELS 3 Zrotation Xrotation Yrotation
              JOINT LeftForeArm
              {
                OFFSET 0 18.9501 0
                CHANNELS 3 Zrotation Xrotation Yrotation
                JOINT LeftForeArmRoll
                {
                  OFFSET 0 7.30092 0
                  CHANNELS 3 Zrotation Xrotation Yrotation
                  JOINT LeftHand
                  {
                    OFFSET 0 14.6514 0
                    CHANNELS 3 Zrotation Xrotation Yrotation
                    End Site
                    {
                      OFFSET 0 0 0
                    }
                  }
                }
              }
            }
          }
        }
      }
    }
  }
  JOINT RightUpLeg
  {
    OFFSET -6.06837 -1.11278 -0.933477
    CHANNELS 3 Zrotation Xrotation Yrotation
    JOINT RightUpLegRoll
    {
      OFFSET 0 17.1796 0
      CHANNELS 3 Zrotation Xrotation Yrotation
      JOINT RightLeg
      {
        OFFSET 0 -21.2743 0
        CHANNELS 3 Zrotation Xrotation Yrotation
        JOINT RightLegRoll
        {
          OFFSET 0 21.3439 0
          CHANNELS 3 Zrotation Xrotation Yrotation
          JOINT RightFoot
          {
            OFFSET 0 17.7652 0
            CHANNELS 3 Zrotation Xrotation Yrotation
            JOINT RightToeBase
            {
              OFFSET 0 14.8508 0
              CHANNELS 3 Zrotation Xrotation Yrotation
              End Site
              {
                OFFSET 0.0062947 7.19214 -0.829005
              }
            }
          }
        }
      }
    }
  }
  JOINT LeftUpLeg
  {
    OFFSET 6.06837 -1.11278 -0.933477
    CHANNELS 3 Zrotation Xrotation Yrotation
    JOINT LeftUpLegRoll
    {
      OFFSET 0 17.1797 0
      CHANNELS 3 Zrotation Xrotation Yrotation
      JOINT LeftLeg
      {
        OFFSET 0 21.2742 0
        CHANNELS 3 Zrotation Xrotation Yrotation
        JOINT LeftLegRoll
        {
          OFFSET 0 21.5412 0
          CHANNELS 3 Zrotation Xrotation Yrotation
          JOINT LeftFoot
          {
            OFFSET 0 17.5679 0
            CHANNELS 3 Zrotation Xrotation Yrotation
            JOINT LeftToeBase
            {
              OFFSET 0 14.8508 0
              CHANNELS 3 Zrotation Xrotation Yrotation
              End Site
              {
                OFFSET -0.0282102 7.19214 -0.829005
              }
            }
          }
        }
      }
    }
  }
}
MOTION
Frames: 5
Frame Time: 0.00208333
52.9604 91.5635 5.28264 -0.633643 -2.38962 -4.28751 0.0897824 -1.70246 -0.116794 0.177468 0.597726 -0.232897 0.180485 2.24279 -0.236037 -1.06449 22.9918 -0.311407 0.0479833 -6.48566 -0.71554 74.475 4.86624 0.375388 97.1828 2.90152 18.46 2.15827e-007 1.43977e-006 -3.63455e-006 8.52523 14.0942 -2.29843 -1.08958e-005 1.57913e-006 -3 8.02909 -4.95146 0.69768 -67.637 2.12272 -0.0779368 -105.249 9.30324 -18.4621 -2.36511e-007 1.25708e-008 3.79048e-006 -13.9779 5.08543 0.966881 1.10192e-005 -3.14871e-006 3.00395 -8.0289 -4.95147 -0.6977 176.09 2.02543 1.35917 180 7.01553e-015 178.947 177.005 4.98584 179.998 -7.54547e-008 2.19107e-006 0.0429864 -18.4706 67.7083 19.2909 8.13649 25.2326 -3.48773 -174.868 -3.36011 -0.534902 4.54188e-006 -4.6773e-006 -1.15237 -1.96894 -4.24811 0.0296329 3.40002e-006 -2.58338e-006 -0.0375874 18.6266 67.9159 -19.4439 -8.13649 25.2327 3.48773 
52.9667 91.5619 5.27818 -0.639032 -2.39009 -4.29447 0.090243 -1.70402 -0.117787 0.178801 0.594613 -0.235601 0.181841 2.23968 -0.238755 -1.07607 22.9534 -0.303986 0.0506276 -6.4476 -0.711848 74.4497 4.8361 0.366005 97.1705 2.91917 18.5393 2.15827e-007 1.43977e-006 -3.63455e-006 8.46646 14.0697 -2.29138 -1.08958e-005 1.57913e-006 -3 8.02909 -4.95146 0.69768 -67.6454 2.11581 -0.0732217 -105.239 9.33784 -18.4924 -2.36511e-007 1.25708e-008 3.79048e-006 -13.9539 4.92352 0.939149 1.10192e-005 -3.14871e-006 3.00392 -8.0289 -4.95147 -0.6977 176.096 2.02465 1.35113 180 7.01553e-015 178.947 177.012 4.98486 179.997 -7.54547e-008 2.19107e-006 0.0429864 -18.4706 67.7083 19.2912 8.13649 25.2326 -3.48773 -174.864 -3.3637 -0.536789 4.54188e-006 -4.6773e-006 -1.15237 -1.9688 -4.24728 0.0300095 3.40002e-006 -2.58338e-006 -0.037878 18.6264 67.9156 -19.443 -8.13649 25.2327 3.48773 
52.9702 91.5664 5.28096 -0.644722 -2.3905 -4.30133 0.0907293 -1.70555 -0.118791 0.180215 0.591588 -0.23834 0.183278 2.23665 -0.241508 -1.08713 22.9145 -0.296726 0.0528383 -6.4092 -0.70818 74.425 4.80589 0.356515 97.1584 2.93703 18.6182 2.15827e-007 1.43977e-006 -3.63455e-006 8.40789 14.0456 -2.28439 -1.08958e-005 1.57913e-006 -3 8.02909 -4.95146 0.69768 -67.6533 2.10839 -0.0683093 -105.229 9.37298 -18.5223 -2.36511e-007 1.25708e-008 3.79048e-006 -13.9301 4.76152 0.911203 1.10192e-005 -3.14871e-006 3.00388 -8.0289 -4.95147 -0.6977 176.103 2.02387 1.34276 180 7.01553e-015 178.947 177.02 4.9838 179.996 -7.54547e-008 2.19107e-006 0.0429864 -18.4706 67.7083 19.2915 8.13649 25.2326 -3.48773 -174.86 -3.36737 -0.538761 4.54188e-006 -4.6773e-006 -1.15237 -1.9686 -4.24608 0.0304169 3.40002e-006 -2.58338e-006 -0.0381838 18.626 67.9153 -19.442 -8.13649 25.2327 3.48773 
52.9665 91.5678 5.28534 -0.650624 -2.39087 -4.30813 0.0912337 -1.70704 -0.119803 0.181685 0.588623 -0.241104 0.184771 2.23368 -0.244285 -1.09784 22.875 -0.289581 0.0547438 -6.37058 -0.704529 74.4007 4.77564 0.34695 97.1464 2.95502 18.697 2.15827e-007 1.43977e-006 -3.63455e-006 8.34946 14.0218 -2.27743 -1.08958e-005 1.57913e-006 -3 8.02909 -4.95146 0.69768 -67.6608 2.1006 -0.0632588 -105.219 9.40851 -18.5518 -2.36511e-007 1.25708e-008 3.79048e-006 -13.9066 4.59947 0.883113 1.10192e-005 -3.14871e-006 3.00383 -8.0289 -4.95147 -0.6977 176.111 2.02308 1.33415 180 7.01553e-015 178.947 177.027 4.98265 179.995 -7.54547e-008 2.19107e-006 0.0429864 -18.4706 67.7083 19.2918 8.13649 25.2326 -3.48773 -174.855 -3.3711 -0.540792 4.54188e-006 -4.6773e-006 -1.15237 -1.96835 -4.24462 0.0308458 3.40002e-006 -2.58338e-006 -0.0385002 18.6257 67.9148 -19.441 -8.13649 25.2327 3.48773 
52.9745 91.5819 5.28674 -0.656646 -2.39121 -4.31488 0.0917484 -1.70851 -0.120818 0.183187 0.585693 -0.243882 0.186296 2.23075 -0.247077 -1.10832 22.8353 -0.282504 0.0564729 -6.33183 -0.700888 74.3766 4.74537 0.337342 97.1344 2.97309 18.7756 2.15827e-007 1.43977e-006 -3.63455e-006 8.29111 13.998 -2.27049 -1.08958e-005 1.57913e-006 -3 8.02909 -4.95146 0.69768 -67.6681 2.0926 -0.0581295 -105.21 9.44425 -18.5812 -2.36511e-007 1.25708e-008 3.79048e-006 -13.8832 4.43738 0.854949 1.10192e-005 -3.14871e-006 3.00378 -8.0289 -4.95147 -0.6977 176.118 2.0223 1.3254 180 7.01553e-015 178.947 177.035 4.98148 179.995 -7.54547e-008 2.19107e-006 0.0429864 -18.4706 67.7083 19.292 8.13649 25.2326 -3.48773 -174.851 -3.37486 -0.542857 4.54188e-006 -4.6773e-006 -1.15237 -1.96808 -4.24301 0.0312872 3.40002e-006 -2.58338e-006 -0.0388226 18.6253 67.9143 -19.4399 -8.13649 25.2327 3.48773 
